# xmcd
#
# Track frame offsets:
#	150
#	16009
#	37675
#	58074
#	76665
#	96557
#	114938
#	134042
#	157574
#	177238
#	196472
#
# Disc length: 2951 seconds
#
# Revision: 1
# Processed by: cddbd v1.5.2PL0 Copyright (c) Steve Scherf et al.
# Submitted via: EasyCDDAExtractor 8.2.3.1
#
DISCID=7d0b850b
DTITLE=Kenny Chesney - Poets and Pirates
DYEAR=2007
DGENRE=Country
TTITLE0=Never Wanted Nothing More
TTITLE1=Don't Blink
TTITLE2=Shiftwork
TTITLE3=Just Not Today
TTITLE4=Wife And Kids
TTITLE5=Got A Little Crazy
TTITLE6=Better As A Memory
TTITLE7=Dancin' For The Groceries
TTITLE8=Wild Rose
TTITLE9=Scare Me
TTITLE10=Demons
EXTD=
EXTT0=
EXTT1=
EXTT2=
EXTT3=
EXTT4=
EXTT5=
EXTT6=
EXTT7=
EXTT8=
EXTT9=
EXTT10=
PLAYORDER=
